<?xml version="1.0" encoding="UTF-8" standalone="no"?>
<!DOCTYPE svg PUBLIC "-//W3C//DTD SVG 20010904//EN"
              "http://www.w3.org/TR/2001/REC-SVG-20010904/DTD/svg10.dtd">

<svg xmlns="http://www.w3.org/2000/svg"
     width="8.33333in" height="8.33333in"
     viewBox="0 0 2500 2500">
  <path id="Selection #1"
        fill="none" stroke="black" stroke-width="1"
        d="M 661.00,1236.00
           C 661.00,1236.00 451.00,1236.00 451.00,1236.00
             451.00,1236.00 436.00,1235.00 436.00,1235.00
             436.00,1235.00 148.00,1235.00 148.00,1235.00
             143.31,1234.99 135.84,1234.81 133.64,1229.67
             132.46,1227.14 133.39,1222.69 133.64,1220.00
             133.64,1220.00 135.58,1204.00 135.58,1204.00
             135.58,1204.00 143.92,1142.00 143.92,1142.00
             143.92,1142.00 150.42,1102.00 150.42,1102.00
             165.22,1019.99 190.56,936.91 238.72,868.00
             245.30,858.59 256.65,843.32 264.17,835.00
             289.60,806.84 327.08,779.00 364.00,768.43
             387.09,761.81 395.69,761.96 419.00,762.00
             431.62,762.02 447.04,765.65 459.00,769.67
             473.14,774.42 486.72,780.92 499.00,789.43
             522.62,805.82 541.94,825.83 558.85,849.00
             585.15,885.05 603.74,926.11 618.69,968.00
             637.93,1021.87 651.08,1078.09 657.16,1135.00
             657.16,1135.00 661.09,1182.00 661.09,1182.00
             661.09,1182.00 662.00,1194.00 662.00,1194.00
             662.00,1194.00 662.00,1222.00 662.00,1222.00
             662.00,1222.00 661.00,1236.00 661.00,1236.00 Z
           M 1415.00,1433.00
           C 1415.00,1477.15 1398.65,1531.86 1368.83,1565.00
             1355.24,1580.10 1339.69,1591.58 1321.00,1599.57
             1276.82,1618.46 1214.06,1614.59 1175.00,1585.52
             1168.28,1580.52 1164.82,1576.83 1159.00,1571.00
             1109.31,1521.23 1093.21,1442.10 1094.00,1374.00
             1094.00,1374.00 1095.00,1356.00 1095.00,1356.00
             1095.00,1356.00 1097.85,1326.00 1097.85,1326.00
             1103.22,1281.03 1116.48,1239.26 1145.92,1204.00
             1154.30,1193.97 1164.17,1184.10 1175.00,1176.75
             1216.65,1148.46 1282.17,1145.38 1327.00,1167.81
             1340.32,1174.47 1354.80,1186.14 1364.91,1197.00
             1392.79,1226.94 1406.38,1268.03 1411.15,1308.00
             1411.15,1308.00 1413.00,1330.00 1413.00,1330.00
             1413.00,1330.00 1322.00,1330.00 1322.00,1330.00
             1321.07,1309.83 1313.90,1279.06 1301.47,1263.00
             1288.13,1245.76 1268.84,1235.53 1247.00,1240.42
             1240.60,1241.86 1234.23,1244.50 1229.00,1248.53
             1224.47,1252.02 1220.73,1256.53 1217.21,1261.00
             1200.23,1282.56 1194.57,1307.43 1190.87,1334.00
             1190.87,1334.00 1188.00,1360.00 1188.00,1360.00
             1188.00,1360.00 1187.00,1378.00 1187.00,1378.00
             1187.00,1378.00 1187.00,1401.00 1187.00,1401.00
             1187.00,1401.00 1187.91,1413.00 1187.91,1413.00
             1189.92,1441.75 1197.24,1476.29 1216.09,1498.99
             1230.65,1516.51 1247.73,1523.26 1270.00,1523.00
             1274.74,1522.94 1279.56,1522.25 1284.00,1520.53
             1290.64,1517.96 1298.08,1512.25 1302.83,1507.00
             1315.76,1492.68 1320.72,1473.41 1324.40,1455.00
             1324.40,1455.00 1328.00,1433.00 1328.00,1433.00
             1328.00,1433.00 1379.00,1433.00 1379.00,1433.00
             1379.00,1433.00 1400.00,1432.00 1400.00,1432.00
             1400.00,1432.00 1415.00,1433.00 1415.00,1433.00 Z
           M 1582.00,1153.21
           C 1582.00,1153.21 1600.00,1153.21 1600.00,1153.21
             1600.00,1153.21 1612.00,1153.92 1612.00,1153.92
             1680.29,1159.38 1729.00,1209.07 1750.00,1272.00
             1775.18,1347.46 1772.83,1435.59 1741.42,1509.00
             1732.40,1530.07 1720.80,1550.32 1704.72,1566.83
             1679.06,1593.17 1639.88,1609.94 1603.00,1610.00
             1603.00,1610.00 1590.00,1610.00 1590.00,1610.00
             1590.00,1610.00 1581.00,1609.17 1581.00,1609.17
             1571.15,1608.21 1562.62,1607.32 1553.00,1604.57
             1520.72,1595.36 1490.80,1571.46 1472.03,1544.00
             1459.45,1525.59 1449.46,1500.44 1443.29,1479.00
             1436.91,1456.79 1432.52,1434.05 1430.91,1411.00
             1430.91,1411.00 1430.00,1399.00 1430.00,1399.00
             1430.00,1399.00 1430.00,1360.00 1430.00,1360.00
             1430.00,1360.00 1430.91,1350.00 1430.91,1350.00
             1433.39,1316.06 1441.69,1282.05 1455.70,1251.00
             1470.39,1218.41 1491.94,1187.69 1524.00,1170.31
             1544.45,1159.22 1559.55,1156.63 1582.00,1153.21 Z
           M 744.00,1600.00
           C 744.00,1600.00 760.69,1568.00 760.69,1568.00
             760.69,1568.00 798.69,1498.00 798.69,1498.00
             798.69,1498.00 889.31,1331.00 889.31,1331.00
             889.31,1331.00 924.22,1267.00 924.22,1267.00
             924.22,1267.00 966.00,1190.00 966.00,1190.00
             966.00,1190.00 974.22,1175.00 974.22,1175.00
             974.22,1175.00 979.21,1168.02 979.21,1168.02
             979.21,1168.02 987.00,1167.00 987.00,1167.00
             987.00,1167.00 1074.00,1167.00 1074.00,1167.00
             1074.00,1167.00 1074.00,1600.00 1074.00,1600.00
             1074.00,1600.00 981.00,1600.00 981.00,1600.00
             981.00,1600.00 981.00,1518.00 981.00,1518.00
             981.00,1518.00 900.00,1518.00 900.00,1518.00
             897.62,1518.00 894.30,1517.79 892.21,1519.02
             889.75,1520.47 887.32,1525.45 885.80,1528.00
             885.80,1528.00 873.99,1548.00 873.99,1548.00
             873.99,1548.00 850.99,1587.00 850.99,1587.00
             846.98,1593.82 845.59,1599.84 837.00,1600.00
             837.00,1600.00 817.00,1601.00 817.00,1601.00
             817.00,1601.00 791.00,1601.00 791.00,1601.00
             791.00,1601.00 774.00,1600.00 774.00,1600.00
             774.00,1600.00 744.00,1600.00 744.00,1600.00 Z
           M 1789.00,1167.00
           C 1789.00,1167.00 1935.00,1167.00 1935.00,1167.00
             1946.99,1167.02 1960.59,1168.95 1972.00,1172.67
             2045.14,1196.51 2082.80,1278.38 2057.31,1350.00
             2049.08,1373.11 2030.01,1395.54 2012.00,1411.83
             2012.00,1411.83 1984.00,1436.00 1984.00,1436.00
             1984.00,1436.00 1996.40,1455.00 1996.40,1455.00
             1996.40,1455.00 2017.80,1491.00 2017.80,1491.00
             2017.80,1491.00 2060.40,1562.00 2060.40,1562.00
             2060.40,1562.00 2083.00,1600.00 2083.00,1600.00
             2083.00,1600.00 1992.00,1600.00 1992.00,1600.00
             1981.16,1599.98 1980.89,1595.84 1975.00,1587.00
             1975.00,1587.00 1960.14,1565.00 1960.14,1565.00
             1960.14,1565.00 1940.66,1536.00 1940.66,1536.00
             1940.66,1536.00 1909.33,1490.00 1909.33,1490.00
             1909.33,1490.00 1882.00,1450.00 1882.00,1450.00
             1882.00,1450.00 1882.00,1600.00 1882.00,1600.00
             1882.00,1600.00 1789.00,1600.00 1789.00,1600.00
             1789.00,1600.00 1789.00,1167.00 1789.00,1167.00 Z
           M 2100.00,1167.00
           C 2100.00,1167.00 2178.00,1167.00 2178.00,1167.00
             2187.82,1167.02 2186.89,1167.93 2194.14,1181.00
             2194.14,1181.00 2214.42,1218.00 2214.42,1218.00
             2214.42,1218.00 2275.70,1329.00 2275.70,1329.00
             2275.70,1329.00 2295.58,1365.00 2295.58,1365.00
             2298.47,1370.13 2302.01,1378.00 2306.00,1382.00
             2306.00,1382.00 2306.00,1326.00 2306.00,1326.00
             2306.00,1326.00 2305.00,1309.00 2305.00,1309.00
             2305.00,1309.00 2305.00,1175.00 2305.00,1175.00
             2305.00,1175.00 2389.00,1175.00 2389.00,1175.00
             2389.00,1175.00 2389.00,1600.00 2389.00,1600.00
             2389.00,1600.00 2327.00,1600.00 2327.00,1600.00
             2317.08,1599.98 2318.82,1599.38 2310.58,1585.00
             2310.58,1585.00 2287.86,1545.00 2287.86,1545.00
             2287.86,1545.00 2220.42,1426.00 2220.42,1426.00
             2220.42,1426.00 2202.30,1394.00 2202.30,1394.00
             2199.25,1388.43 2194.23,1378.22 2190.00,1374.00
             2190.00,1374.00 2190.00,1428.00 2190.00,1428.00
             2190.00,1428.00 2191.00,1445.00 2191.00,1445.00
             2191.00,1445.00 2191.00,1600.00 2191.00,1600.00
             2191.00,1600.00 2101.00,1600.00 2101.00,1600.00
             2101.00,1600.00 2101.00,1518.00 2101.00,1518.00
             2101.00,1518.00 2100.00,1501.00 2100.00,1501.00
             2100.00,1501.00 2100.00,1167.00 2100.00,1167.00 Z
           M 1593.00,1238.29
           C 1586.43,1239.29 1582.20,1240.21 1576.00,1242.87
             1552.48,1252.98 1544.45,1273.45 1537.00,1296.00
             1527.87,1323.64 1526.00,1353.13 1526.00,1382.00
             1526.00,1409.70 1526.85,1433.01 1534.15,1460.00
             1541.49,1487.12 1557.10,1517.69 1588.00,1522.13
             1593.20,1522.88 1596.66,1523.37 1602.00,1522.71
             1634.67,1518.69 1649.52,1495.69 1660.19,1467.00
             1671.05,1437.81 1672.05,1404.75 1672.00,1374.00
             1672.00,1374.00 1671.00,1354.00 1671.00,1354.00
             1670.82,1338.76 1666.63,1313.74 1662.42,1299.00
             1659.62,1289.18 1655.14,1275.56 1649.77,1267.00
             1636.91,1246.47 1617.04,1236.04 1593.00,1238.29 Z
           M 1882.00,1257.00
           C 1882.00,1257.00 1882.00,1335.00 1882.00,1335.00
             1882.00,1335.00 1882.00,1352.00 1882.00,1352.00
             1882.04,1353.95 1881.90,1356.63 1883.60,1357.98
             1885.19,1359.23 1889.01,1359.00 1891.00,1359.00
             1909.46,1359.04 1931.81,1361.53 1948.00,1351.53
             1966.24,1340.27 1972.67,1319.23 1971.08,1299.00
             1970.10,1286.52 1966.29,1274.99 1955.99,1267.04
             1938.88,1253.84 1903.22,1257.00 1882.00,1257.00 Z
           M 111.00,1279.00
           C 111.00,1279.00 682.00,1279.00 682.00,1279.00
             681.36,1292.94 671.07,1330.79 666.33,1345.00
             651.25,1390.24 628.25,1435.17 594.00,1468.99
             579.13,1483.67 562.09,1495.66 544.00,1506.00
             527.32,1515.53 507.31,1521.34 489.00,1527.02
             489.00,1527.02 439.00,1543.67 439.00,1543.67
             422.97,1549.01 405.08,1552.04 406.04,1574.00
             406.66,1588.07 417.94,1595.82 429.00,1602.13
             429.00,1602.13 466.00,1620.31 466.00,1620.31
             466.00,1620.31 506.00,1639.75 506.00,1639.75
             506.00,1639.75 523.00,1648.22 523.00,1648.22
             525.93,1649.60 530.22,1650.96 532.30,1653.39
             534.56,1656.02 535.48,1660.65 536.00,1664.00
             518.80,1660.87 502.63,1654.66 486.00,1649.34
             486.00,1649.34 418.00,1627.67 418.00,1627.67
             418.00,1627.67 229.00,1567.66 229.00,1567.66
             229.00,1567.66 159.00,1545.33 159.00,1545.33
             159.00,1545.33 113.00,1531.00 113.00,1531.00
             113.75,1527.00 116.03,1520.24 120.18,1518.61
             123.04,1517.49 129.93,1519.38 133.00,1520.13
             133.00,1520.13 160.00,1526.79 160.00,1526.79
             160.00,1526.79 224.00,1543.12 224.00,1543.12
             224.00,1543.12 303.00,1563.42 303.00,1563.42
             303.00,1563.42 329.00,1570.37 329.00,1570.37
             333.74,1571.59 339.11,1573.30 344.00,1572.82
             350.76,1572.17 358.25,1568.29 359.57,1561.00
             361.49,1550.40 350.69,1543.90 342.00,1542.01
             342.00,1542.01 315.00,1535.98 315.00,1535.98
             290.97,1528.51 266.00,1515.72 245.00,1501.92
             202.90,1474.26 161.88,1430.22 139.27,1385.00
             128.90,1364.26 122.66,1343.57 117.79,1321.00
             115.33,1309.61 111.10,1290.23 111.00,1279.00 Z
           M 979.00,1348.00
           C 973.32,1353.57 969.59,1363.88 965.58,1371.00
             965.58,1371.00 936.00,1428.00 936.00,1428.00
             936.00,1428.00 979.00,1428.00 979.00,1428.00
             979.00,1428.00 979.00,1348.00 979.00,1348.00 Z" />
</svg>
