<?xml version="1.0" encoding="UTF-8" standalone="no"?>
<!DOCTYPE svg PUBLIC "-//W3C//DTD SVG 20010904//EN"
              "http://www.w3.org/TR/2001/REC-SVG-20010904/DTD/svg10.dtd">

<svg xmlns="http://www.w3.org/2000/svg"
     width="8.33333in" height="8.33333in"
     viewBox="0 0 2500 2500">
  <path id="Selection #1"
        fill="none" stroke="black" stroke-width="1"
        d="M 1422.00,1686.00
           C 1422.00,1686.00 1382.00,1694.55 1382.00,1694.55
             1382.00,1694.55 1329.00,1703.73 1329.00,1703.73
             1329.00,1703.73 1275.00,1709.09 1275.00,1709.09
             1275.00,1709.09 1263.00,1710.00 1263.00,1710.00
             1263.00,1710.00 1210.00,1710.00 1210.00,1710.00
             1210.00,1710.00 1197.00,1709.04 1197.00,1709.04
             1166.51,1707.71 1135.98,1703.59 1106.00,1697.80
             1008.56,1679.00 924.51,1643.34 842.00,1588.33
             778.28,1545.85 718.28,1488.21 672.37,1427.00
             613.91,1349.05 571.38,1259.87 548.88,1165.00
             540.08,1127.86 534.51,1090.02 531.91,1052.00
             531.91,1052.00 531.00,1042.00 531.00,1042.00
             531.00,1042.00 530.00,1022.00 530.00,1022.00
             530.00,1022.00 530.00,979.00 530.00,979.00
             530.00,979.00 531.00,959.00 531.00,959.00
             531.00,959.00 531.91,949.00 531.91,949.00
             533.76,922.11 537.08,895.51 542.20,869.00
             561.51,768.93 598.92,679.85 656.98,596.00
             678.67,564.66 703.20,534.12 730.00,507.00
             783.37,453.00 844.40,406.14 912.00,371.26
             992.51,329.71 1077.83,303.85 1168.00,294.83
             1168.00,294.83 1210.00,292.00 1210.00,292.00
             1210.00,292.00 1225.00,291.00 1225.00,291.00
             1225.00,291.00 1251.00,291.00 1251.00,291.00
             1251.00,291.00 1272.00,292.00 1272.00,292.00
             1272.00,292.00 1282.00,292.91 1282.00,292.91
             1282.00,292.91 1313.00,295.85 1313.00,295.85
             1335.20,298.50 1361.25,302.46 1383.00,307.35
             1383.00,307.35 1411.00,313.35 1411.00,313.35
             1413.55,313.93 1419.43,314.69 1421.01,316.72
             1422.26,318.33 1422.00,322.01 1422.00,324.00
             1422.00,324.00 1422.00,696.00 1422.00,696.00
             1415.99,693.80 1410.67,690.18 1405.00,687.26
             1405.00,687.26 1380.00,675.43 1380.00,675.43
             1345.28,660.57 1304.71,649.67 1267.00,646.91
             1267.00,646.91 1257.00,646.00 1257.00,646.00
             1257.00,646.00 1223.00,646.00 1223.00,646.00
             1223.00,646.00 1211.00,646.91 1211.00,646.91
             1172.56,649.72 1128.82,660.69 1094.00,677.25
             1045.44,700.36 1006.83,728.25 971.28,769.00
             887.58,864.97 862.02,999.18 904.69,1119.00
             918.67,1158.24 938.68,1192.63 964.80,1225.00
             987.34,1252.92 1015.90,1278.70 1046.00,1298.31
             1093.58,1329.30 1146.59,1348.13 1203.00,1354.16
             1203.00,1354.16 1226.00,1356.00 1226.00,1356.00
             1226.00,1356.00 1253.00,1356.00 1253.00,1356.00
             1253.00,1356.00 1263.00,1355.09 1263.00,1355.09
             1307.07,1352.06 1349.89,1340.11 1390.00,1321.69
             1390.00,1321.69 1422.00,1305.00 1422.00,1305.00
             1422.00,1305.00 1422.00,1686.00 1422.00,1686.00 Z
           M 1423.00,705.00
           C 1423.00,705.00 1986.00,705.00 1986.00,705.00
             1986.00,705.00 1962.00,730.00 1962.00,730.00
             1962.00,730.00 1919.00,773.00 1919.00,773.00
             1919.00,773.00 1785.00,907.00 1785.00,907.00
             1785.00,907.00 1738.00,954.00 1738.00,954.00
             1738.00,954.00 1721.00,969.40 1721.00,969.40
             1721.00,969.40 1714.00,970.00 1714.00,970.00
             1714.00,970.00 1423.00,970.00 1423.00,970.00
             1423.00,970.00 1423.00,705.00 1423.00,705.00 Z
           M 1423.00,1032.00
           C 1423.00,1032.00 1714.00,1032.00 1714.00,1032.00
             1714.00,1032.00 1721.00,1032.60 1721.00,1032.60
             1721.00,1032.60 1738.00,1048.00 1738.00,1048.00
             1738.00,1048.00 1785.00,1095.00 1785.00,1095.00
             1785.00,1095.00 1919.00,1229.00 1919.00,1229.00
             1919.00,1229.00 1962.00,1272.00 1962.00,1272.00
             1962.00,1272.00 1986.00,1297.00 1986.00,1297.00
             1986.00,1297.00 1423.00,1297.00 1423.00,1297.00
             1423.00,1297.00 1423.00,1032.00 1423.00,1032.00 Z
           M 1730.00,1768.00
           C 1730.00,1768.00 1797.00,1768.00 1797.00,1768.00
             1797.00,1768.00 1797.00,2056.00 1797.00,2056.00
             1797.00,2056.00 1737.00,2056.00 1737.00,2056.00
             1737.00,2056.00 1737.00,2017.00 1737.00,2017.00
             1737.00,2017.00 1724.83,2033.00 1724.83,2033.00
             1716.34,2042.50 1704.15,2050.64 1692.00,2054.64
             1681.21,2058.20 1669.20,2059.25 1658.00,2058.17
             1647.42,2057.14 1641.06,2056.44 1631.00,2052.13
             1624.93,2049.53 1619.25,2046.10 1614.00,2042.10
             1590.71,2024.39 1578.04,1991.77 1578.00,1963.00
             1578.00,1963.00 1578.00,1946.00 1578.00,1946.00
             1578.06,1906.57 1599.97,1866.87 1640.00,1856.63
             1645.56,1855.21 1651.25,1854.07 1657.00,1854.00
             1679.06,1853.75 1695.84,1855.21 1714.00,1869.52
             1719.85,1874.12 1725.13,1880.39 1730.00,1886.00
             1730.00,1886.00 1730.00,1768.00 1730.00,1768.00 Z
           M 263.00,1993.00
           C 263.00,1993.00 265.76,2033.00 265.76,2033.00
             265.91,2035.53 266.94,2048.95 265.76,2050.44
             264.15,2053.09 249.67,2055.47 246.00,2056.20
             225.63,2060.27 204.76,2062.24 184.00,2062.00
             184.00,2062.00 174.00,2060.96 174.00,2060.96
             174.00,2060.96 166.00,2060.96 166.00,2060.96
             124.75,2056.90 84.09,2040.27 60.03,2005.00
             52.07,1993.34 47.03,1981.47 43.04,1968.00
             39.89,1957.41 37.13,1938.04 37.00,1927.00
             36.78,1908.28 38.56,1888.86 44.51,1871.00
             56.10,1836.21 82.83,1808.39 117.00,1795.06
             152.34,1781.28 192.03,1780.84 229.00,1787.08
             239.64,1788.88 245.81,1790.60 256.00,1794.00
             258.52,1794.84 263.54,1796.10 264.94,1798.42
             266.29,1800.64 264.64,1810.06 264.28,1813.00
             264.28,1813.00 260.00,1852.00 260.00,1852.00
             260.00,1852.00 228.00,1839.43 228.00,1839.43
             200.80,1831.67 167.85,1833.51 144.00,1849.75
             92.06,1885.10 97.64,1975.69 159.00,2000.55
             182.41,2010.03 208.90,2009.27 233.00,2002.85
             233.00,2002.85 263.00,1993.00 263.00,1993.00 Z
           M 393.00,1854.21
           C 393.00,1854.21 420.00,1854.21 420.00,1854.21
             444.91,1854.04 474.31,1863.48 493.00,1880.17
             513.05,1898.08 521.26,1920.84 523.09,1947.00
             523.09,1947.00 523.99,1956.00 523.99,1956.00
             524.10,1960.87 523.60,1962.50 523.17,1967.00
             520.97,1989.68 515.95,2009.70 499.91,2027.00
             480.92,2047.49 456.47,2057.20 429.00,2059.96
             429.00,2059.96 421.00,2059.96 421.00,2059.96
             421.00,2059.96 409.00,2060.99 409.00,2060.99
             409.00,2060.99 400.00,2059.96 400.00,2059.96
             400.00,2059.96 392.00,2059.96 392.00,2059.96
             369.71,2057.70 345.90,2049.91 329.00,2034.83
             309.28,2017.22 298.04,1991.45 298.00,1965.00
             298.00,1965.00 298.00,1947.00 298.00,1947.00
             298.25,1925.74 307.65,1901.56 322.09,1886.00
             342.21,1864.33 365.09,1858.47 393.00,1854.21 Z
           M 624.00,1894.00
           C 635.64,1880.24 640.63,1870.65 658.00,1861.97
             685.51,1848.22 722.05,1851.75 743.99,1874.00
             749.77,1879.87 754.72,1887.01 757.00,1895.00
             757.00,1895.00 759.00,1895.00 759.00,1895.00
             761.83,1887.60 767.45,1881.52 773.00,1876.00
             788.51,1860.61 807.39,1853.90 829.00,1854.00
             845.36,1854.08 862.72,1858.96 874.99,1870.17
             889.67,1883.60 897.77,1908.40 898.00,1928.00
             898.00,1928.00 899.00,1947.00 899.00,1947.00
             899.00,1947.00 899.00,2009.00 899.00,2009.00
             899.00,2009.00 899.00,2042.00 899.00,2042.00
             899.00,2044.66 899.48,2052.51 897.98,2054.40
             896.41,2056.38 892.30,2056.00 890.00,2056.00
             890.00,2056.00 833.00,2056.00 833.00,2056.00
             833.00,2056.00 833.00,1957.00 833.00,1957.00
             832.90,1935.42 827.46,1908.43 800.00,1909.75
             780.55,1910.68 770.30,1926.44 766.67,1944.00
             764.19,1955.95 765.00,1973.42 765.00,1986.00
             765.00,1986.00 765.00,2056.00 765.00,2056.00
             765.00,2056.00 699.00,2056.00 699.00,2056.00
             699.00,2056.00 699.00,1964.00 699.00,1964.00
             699.00,1964.00 697.96,1952.00 697.96,1952.00
             697.96,1952.00 697.96,1942.00 697.96,1942.00
             696.76,1931.30 692.63,1919.44 683.00,1913.61
             679.31,1911.38 675.23,1910.39 671.00,1909.89
             652.50,1907.68 639.92,1920.46 634.36,1937.00
             629.63,1951.03 631.00,1967.26 631.00,1982.00
             631.00,1982.00 631.00,2056.00 631.00,2056.00
             631.00,2056.00 565.00,2056.00 565.00,2056.00
             565.00,2056.00 565.00,1859.00 565.00,1859.00
             565.00,1859.00 624.00,1859.00 624.00,1859.00
             624.00,1859.00 624.00,1894.00 624.00,1894.00 Z
           M 1009.00,1894.00
           C 1011.92,1886.37 1017.28,1880.66 1023.00,1875.00
             1050.28,1848.01 1099.68,1846.11 1126.99,1874.00
             1132.76,1879.90 1137.72,1886.99 1140.00,1895.00
             1140.00,1895.00 1142.00,1895.00 1142.00,1895.00
             1144.83,1887.60 1150.45,1881.52 1156.00,1876.00
             1186.52,1845.71 1245.17,1844.62 1268.79,1884.00
             1282.27,1906.45 1281.00,1930.03 1281.00,1955.00
             1281.00,1955.00 1281.00,2056.00 1281.00,2056.00
             1281.00,2056.00 1216.00,2056.00 1216.00,2056.00
             1216.00,2056.00 1216.00,1957.00 1216.00,1957.00
             1216.00,1957.00 1215.17,1948.00 1215.17,1948.00
             1215.17,1948.00 1214.56,1940.00 1214.56,1940.00
             1211.82,1922.48 1202.34,1908.81 1183.00,1909.75
             1163.59,1910.69 1153.28,1926.50 1149.67,1944.00
             1147.19,1955.95 1148.00,1973.42 1148.00,1986.00
             1148.00,1986.00 1148.00,2056.00 1148.00,2056.00
             1148.00,2056.00 1090.00,2056.00 1090.00,2056.00
             1081.36,2055.98 1081.02,2055.64 1081.00,2047.00
             1081.00,2047.00 1081.00,1948.00 1081.00,1948.00
             1080.97,1927.70 1072.35,1908.62 1049.00,1909.75
             1025.01,1910.91 1014.10,1935.89 1014.00,1957.00
             1014.00,1957.00 1014.00,2056.00 1014.00,2056.00
             1014.00,2056.00 948.00,2056.00 948.00,2056.00
             948.00,2056.00 948.00,1859.00 948.00,1859.00
             948.00,1859.00 1008.00,1859.00 1008.00,1859.00
             1008.00,1859.00 1009.00,1894.00 1009.00,1894.00 Z
           M 1414.00,1854.21
           C 1414.00,1854.21 1442.00,1854.21 1442.00,1854.21
             1469.25,1854.04 1499.35,1864.89 1518.72,1884.28
             1554.37,1919.99 1554.20,1995.61 1517.96,2030.91
             1499.78,2048.62 1474.91,2057.45 1450.00,2059.96
             1450.00,2059.96 1442.00,2059.96 1442.00,2059.96
             1442.00,2059.96 1430.00,2060.99 1430.00,2060.99
             1430.00,2060.99 1421.00,2060.09 1421.00,2060.09
             1392.44,2058.13 1365.84,2051.30 1345.09,2029.96
             1324.67,2008.97 1318.96,1982.25 1319.00,1954.00
             1319.03,1931.88 1326.24,1905.73 1341.17,1889.00
             1362.60,1864.99 1383.51,1858.85 1414.00,1854.21 Z
           M 1932.00,1854.21
           C 1932.00,1854.21 1950.00,1854.21 1950.00,1854.21
             1978.47,1854.00 2007.64,1859.16 2030.00,1878.30
             2041.43,1888.08 2049.92,1900.07 2055.55,1914.00
             2060.08,1925.22 2062.94,1942.90 2063.00,1955.00
             2063.13,1982.92 2055.95,2010.48 2035.72,2030.72
             2017.73,2048.70 1992.94,2057.45 1968.00,2059.96
             1968.00,2059.96 1960.00,2059.96 1960.00,2059.96
             1960.00,2059.96 1948.00,2060.99 1948.00,2060.99
             1948.00,2060.99 1939.00,2060.09 1939.00,2060.09
             1910.37,2058.12 1885.22,2051.75 1864.01,2030.96
             1846.77,2014.06 1837.04,1988.01 1837.00,1964.00
             1837.00,1964.00 1837.00,1949.00 1837.00,1949.00
             1837.27,1926.08 1847.08,1900.49 1863.09,1884.04
             1875.77,1871.00 1895.32,1861.38 1913.00,1857.42
             1913.00,1857.42 1932.00,1854.21 1932.00,1854.21 Z
           M 2165.00,1896.00
           C 2166.71,1889.99 2169.82,1885.11 2173.35,1880.00
             2182.84,1866.27 2197.30,1856.47 2214.00,1854.15
             2214.00,1854.15 2228.00,1854.15 2228.00,1854.15
             2230.92,1854.04 2241.28,1854.60 2243.00,1856.74
             2244.69,1858.83 2243.02,1871.37 2243.00,1875.00
             2243.00,1875.00 2242.09,1886.00 2242.09,1886.00
             2242.09,1886.00 2241.00,1913.00 2241.00,1913.00
             2241.00,1913.00 2222.00,1910.04 2222.00,1910.04
             2189.82,1908.79 2171.36,1933.70 2171.00,1964.00
             2171.00,1964.00 2171.00,2056.00 2171.00,2056.00
             2171.00,2056.00 2104.00,2056.00 2104.00,2056.00
             2104.00,2056.00 2104.00,1859.00 2104.00,1859.00
             2104.00,1859.00 2164.00,1859.00 2164.00,1859.00
             2164.00,1867.28 2163.11,1889.33 2165.00,1896.00 Z
           M 2446.00,2002.00
           C 2446.00,2002.00 2446.00,2041.00 2446.00,2041.00
             2446.00,2043.10 2446.25,2046.61 2445.01,2048.35
             2442.98,2051.19 2430.76,2053.95 2427.00,2054.87
             2406.74,2059.82 2386.77,2061.24 2366.00,2061.00
             2340.94,2060.70 2312.19,2052.12 2293.00,2035.70
             2272.15,2017.86 2260.32,1989.29 2260.00,1962.00
             2259.66,1933.01 2262.57,1909.01 2282.30,1886.00
             2299.75,1865.64 2328.39,1854.04 2355.00,1854.00
             2355.00,1854.00 2373.00,1854.00 2373.00,1854.00
             2394.56,1854.26 2418.19,1863.60 2433.99,1878.17
             2454.39,1896.99 2462.96,1930.00 2463.00,1957.00
             2463.00,1957.00 2463.00,1977.00 2463.00,1977.00
             2463.00,1977.00 2324.00,1977.00 2324.00,1977.00
             2325.91,1984.18 2327.15,1990.74 2331.63,1997.00
             2351.41,2024.63 2392.84,2019.73 2421.00,2010.98
             2421.00,2010.98 2446.00,2002.00 2446.00,2002.00 Z
           M 2404.00,1937.00
           C 2400.10,1921.52 2399.39,1909.74 2384.00,1899.96
             2378.53,1896.49 2371.41,1894.81 2365.00,1894.32
             2362.24,1894.11 2360.68,1894.50 2358.00,1894.87
             2336.34,1897.88 2324.19,1917.20 2324.00,1938.00
             2324.00,1938.00 2377.00,1938.00 2377.00,1938.00
             2377.00,1938.00 2404.00,1937.00 2404.00,1937.00 Z
           M 407.00,1900.29
           C 401.94,1901.06 397.68,1901.65 393.00,1903.99
             367.94,1916.52 364.02,1950.44 369.00,1975.00
             373.00,1994.69 386.31,2012.74 408.00,2013.00
             414.58,2013.07 418.65,2013.20 425.00,2010.91
             453.51,2000.64 457.34,1961.35 451.35,1936.00
             446.24,1914.41 430.34,1898.18 407.00,1900.29 Z
           M 1428.00,1900.29
           C 1422.78,1901.15 1418.80,1901.86 1414.00,1904.28
             1397.22,1912.72 1389.09,1933.03 1389.00,1951.00
             1389.00,1951.00 1389.00,1962.00 1389.00,1962.00
             1389.04,1986.21 1402.91,2012.68 1430.00,2013.00
             1436.25,2013.07 1439.97,2013.08 1446.00,2010.91
             1475.28,2000.38 1479.92,1957.77 1471.66,1932.00
             1465.19,1911.84 1450.05,1898.27 1428.00,1900.29 Z
           M 1946.00,1900.29
           C 1939.73,1901.33 1935.64,1902.13 1930.00,1905.34
             1906.77,1918.55 1903.15,1952.40 1908.42,1976.00
             1912.62,1994.74 1926.29,2012.75 1947.00,2013.00
             1953.57,2013.08 1957.65,2013.19 1964.00,2010.91
             1992.81,2000.54 1996.96,1960.64 1990.37,1935.00
             1984.97,1913.97 1968.70,1898.21 1946.00,1900.29 Z
           M 1678.00,1903.33
           C 1663.80,1906.73 1654.90,1917.75 1650.05,1931.00
             1639.43,1960.04 1647.77,2008.12 1686.00,2008.99
             1691.15,2009.10 1695.02,2008.65 1700.00,2007.25
             1720.05,2001.63 1728.91,1981.39 1729.00,1962.00
             1729.00,1962.00 1729.00,1949.00 1729.00,1949.00
             1728.85,1936.69 1723.83,1921.93 1714.83,1913.30
             1704.43,1903.33 1691.74,1901.80 1678.00,1903.33 Z" />
</svg>
